# xmcd
#
# Track frame offsets:
#	150
#	13780
#	25992
#	37657
#	49295
#	62562
#	75712
#	89102
#	101615
#
# Disc length: 1545 seconds
#
# Revision: 1
# Processed by: cddbd v1.4PL0 Copyright (c) Steve Scherf et al.
# Submitted via: MusicWizard 6.0.0
#
DISCID=6c060709
DTITLE=Bobby Bare - Sings Fishin´ Songs
DYEAR=1988
DGENRE=Country
TTITLE0=Gone Fishing Again
TTITLE1=Mama's Got The Catfish Blues
TTITLE2=I Must Go To Center Hill
TTITLE3=Mother Nature's Child
TTITLE4=The Mermaid
TTITLE5=The Great American Fisherman
TTITLE6=Out On The Water
TTITLE7=Fishing With Orlando
TTITLE8=Detroit City
EXTD=(C) Record Service AG, Swiss, 1988\nIssued under License from Bare Works, Nashville TN
EXTT0=
EXTT1=
EXTT2=
EXTT3=
EXTT4=
EXTT5=
EXTT6=
EXTT7=
EXTT8=
PLAYORDER=
